<?xml version="1.0" encoding="UTF-8" standalone="no"?>
<!-- Created with Inkscape (http://www.inkscape.org/) -->

<svg
   width="193.8107mm"
   height="76.23687mm"
   viewBox="0 0 193.8107 76.236871"
   version="1.1"
   id="svg1"
   xml:space="preserve"
   xmlns="http://www.w3.org/2000/svg"><defs
     id="defs1" /><g
     id="layer1"
     transform="translate(-12.657086,-109.79286)"><g
       id="g1"><path
         style="fill:#027abe"
         d="m 139.45658,184.12078 c -1.4084,-0.11814 -2.4125,-0.87441 -3.15902,-2.3793 -0.35528,-0.71621 -0.40509,-0.88957 -0.48477,-1.68723 -0.059,-0.59063 -0.0799,-5.19405 -0.0623,-13.716 0.0264,-12.78506 0.0271,-12.82908 0.20648,-13.46222 0.53433,-1.88565 1.48427,-2.8425 3.17285,-3.19596 0.64984,-0.13602 1.48774,-0.14815 10.23279,-0.14815 7.46929,0 9.68032,0.0241 10.24467,0.11175 2.7332,0.42444 4.66462,1.83092 5.54361,4.03691 0.58856,1.47713 0.82521,2.94937 0.83017,5.16467 0.004,1.66462 -0.14349,3.02711 -0.40813,3.77717 -0.18748,0.53136 -0.67069,1.3834 -1.10371,1.94614 -0.70373,0.91455 -1.45188,1.43718 -2.48313,1.73462 -0.34989,0.10092 -0.64876,0.22125 -0.66414,0.26739 -0.0154,0.0461 0.3062,0.16771 0.71462,0.27014 2.41597,0.60594 3.91315,2.34301 4.37784,5.07929 0.18006,1.06025 0.1811,3.82558 0.002,5.44514 -0.21553,1.94949 -0.54034,2.88731 -1.40734,4.06333 -0.92221,1.2509 -2.07414,2.05558 -3.62384,2.53143 l -0.635,0.19499 -10.287,0.0131 c -5.65785,0.007 -10.61085,-0.014 -11.00667,-0.0472 z m 16.891,-5.20471 c 1.4301,-0.16991 2.14327,-0.51359 2.67775,-1.29043 0.41496,-0.60313 0.58714,-1.15982 0.7153,-2.31272 0.19999,-1.79899 -0.0668,-3.73738 -0.61497,-4.46864 -0.49838,-0.66482 -1.25289,-1.15652 -2.11168,-1.37616 -0.62158,-0.15897 -0.96728,-0.16653 -7.61224,-0.16653 -5.94974,0 -6.97576,0.0177 -7.06209,0.1217 -0.1332,0.16049 -0.0765,7.88353 0.0615,8.38074 0.19281,0.69459 0.6131,1.04322 1.37671,1.14199 0.30088,0.0389 3.02356,0.0753 6.05039,0.0808 4.28426,0.008 5.72839,-0.0167 6.51933,-0.11071 z m 0.90968,-15.06291 c 0.6267,-0.24208 1.23281,-0.84277 1.5562,-1.54229 0.43458,-0.94002 0.5664,-2.51057 0.364,-4.33679 -0.11198,-1.01038 -0.41569,-1.70192 -1.00731,-2.29353 -0.50408,-0.50408 -1.01317,-0.75996 -1.71346,-0.86123 -0.29284,-0.0423 -3.34354,-0.0778 -6.77933,-0.0787 -6.8018,-0.002 -6.63733,-0.0131 -6.97791,0.47555 -0.39139,0.56152 -0.39812,0.63532 -0.42968,4.71455 -0.0228,2.95296 -0.005,3.90902 0.0727,4.00321 0.0889,0.10711 1.07028,0.12042 7.30791,0.0991 6.74883,-0.0231 7.23067,-0.0345 7.6069,-0.17982 z m 13.36675,20.23492 c -0.0699,-0.0842 -0.0896,-3.57382 -0.0739,-13.10216 l 0.0214,-12.98733 h 2.83252 2.83252 l 0.0589,0.21166 c 0.0948,0.34089 0.0882,25.52568 -0.007,25.77549 l -0.0826,0.21718 h -2.7434 c -2.20611,0 -2.76206,-0.0225 -2.8387,-0.11484 z m 18.87057,0.03 c -0.81948,-0.0682 -1.50909,-0.19821 -2.24366,-0.42304 -0.75514,-0.23114 -1.08226,-0.38478 -1.91219,-0.89815 -1.81918,-1.1253 -2.89144,-2.77703 -3.24355,-4.99643 -0.11689,-0.73674 -0.13593,-1.84948 -0.13593,-7.94306 0,-4.72286 -0.0292,-7.14092 -0.0876,-7.25007 -0.0818,-0.15286 -0.19208,-0.16376 -1.65657,-0.16376 -0.91959,0 -1.6367,-0.0363 -1.73269,-0.0876 -0.155,-0.083 -0.16377,-0.19757 -0.16377,-2.14207 0,-1.48499 0.0282,-2.08258 0.1016,-2.15602 0.072,-0.072 0.57696,-0.1016 1.73269,-0.1016 1.52596,0 1.63674,-0.0106 1.71874,-0.16377 0.0569,-0.10629 0.0876,-1.57402 0.0876,-4.18194 0,-3.58594 0.0144,-4.0237 0.13393,-4.06956 0.0737,-0.0283 1.32629,-0.0514 2.78363,-0.0514 2.11215,0 2.66882,0.023 2.74392,0.11352 0.0656,0.0791 0.10088,1.35739 0.1162,4.21217 l 0.022,4.09865 3.54846,0.0221 c 2.44778,0.0152 3.58362,0.0513 3.66183,0.11621 0.15933,0.13223 0.16646,4.17767 0.008,4.28053 -0.0582,0.0377 -1.70603,0.0875 -3.66183,0.11083 l -3.556,0.0423 -0.0227,6.35 c -0.02,5.60688 -0.006,6.43422 0.1166,7.06967 0.26346,1.36141 0.68137,2.14342 1.46856,2.74805 1.00335,0.77065 1.60219,0.93222 3.94084,1.06327 0.93133,0.0522 1.74096,0.11015 1.79917,0.12879 0.0809,0.0259 0.10583,0.53048 0.10583,2.14417 0,1.84618 -0.0168,2.1167 -0.13392,2.16166 -0.17966,0.0689 -4.63131,0.0421 -5.53875,-0.0334 z m -67.98733,-27.09983 c -0.77308,-0.34954 -1.25669,-1.0242 -1.33237,-1.85871 -0.0507,-0.55941 0.068,-0.98884 0.41328,-1.49423 0.13296,-0.19466 0.24176,-0.39321 0.24176,-0.44123 0,-0.048 -1.42875,-2.49106 -3.175,-5.42897 -1.74625,-2.93792 -3.175,-5.40977 -3.175,-5.49301 0,-0.1441 0.31349,-0.34787 0.53518,-0.34787 0.0571,0 1.43357,2.23838 3.05874,4.97417 1.62517,2.73579 3.08374,5.17831 3.24127,5.42782 l 0.28642,0.45366 0.46066,-0.0576 c 0.92908,-0.11608 1.83473,0.33903 2.28138,1.14644 0.21965,0.39707 0.25372,0.54499 0.25204,1.09414 -10e-4,0.48409 -0.045,0.71548 -0.18307,0.97367 -0.4089,0.76458 -1.16564,1.22394 -2.01629,1.22394 -0.3296,0 -0.6418,-0.0605 -0.889,-0.17226 z m 49.1236,-2.97362 c -0.0737,-0.0737 -0.1016,-0.68984 -0.1016,-2.24069 0,-2.0282 0.008,-2.14363 0.16377,-2.22673 0.21066,-0.11274 5.33096,-0.11723 5.5089,-0.005 0.10731,0.0678 0.127,0.40551 0.127,2.17887 0,1.15425 -0.0274,2.16531 -0.0609,2.2468 -0.0562,0.13681 -0.27081,0.14817 -2.79823,0.14817 -2.01619,0 -2.76416,-0.0268 -2.83899,-0.1016 z m -69.90927,-3.22492 c -1.552141,-0.74395 -1.7674,-2.79835 -0.4023,-3.83955 0.48382,-0.36902 1.15738,-0.51697 1.76926,-0.38863 0.25272,0.053 0.50574,0.0771 0.56226,0.0536 0.0565,-0.0235 0.92193,-1.16802 1.92312,-2.5433 1.00118,-1.37528 1.86971,-2.54152 1.93007,-2.59166 0.12499,-0.10382 0.55186,0.1632 0.58891,0.36838 0.0117,0.0649 -0.81646,1.26102 -1.8404,2.65802 -1.02394,1.397 -1.86221,2.60188 -1.86282,2.67751 -6e-4,0.0756 0.0956,0.31043 0.21369,0.52179 0.58497,1.04662 0.20308,2.36883 -0.86497,2.99475 -0.56282,0.32983 -1.43423,0.36833 -2.01682,0.0891 z m 22.26263,-3.47845 c -0.9731,-0.45313 -1.5015,-1.59505 -1.21521,-2.62616 0.0829,-0.29848 0.0729,-0.34708 -0.1063,-0.51684 -0.10878,-0.10306 -1.24921,-0.9535 -2.53428,-1.88987 -1.28508,-0.93636 -2.38401,-1.75972 -2.44206,-1.82967 -0.0862,-0.10383 -0.0719,-0.17438 0.0774,-0.38417 0.10065,-0.14134 0.21985,-0.25699 0.26491,-0.25699 0.0595,0 4.16887,2.95105 5.20712,3.73934 0.0557,0.0423 0.30457,-0.0378 0.61558,-0.19817 0.71391,-0.3682 1.37119,-0.38226 2.06012,-0.0441 1.44746,0.71052 1.68621,2.59204 0.46528,3.66675 -0.65935,0.58039 -1.59167,0.71282 -2.39259,0.33987 z m 16.08333,-11.41953 -0.16129,-0.1905 0.1905,0.16129 c 0.17902,0.15157 0.22904,0.21971 0.16129,0.21971 -0.0161,0 -0.10179,-0.0857 -0.1905,-0.1905 z m 6.33092,-0.45509 c -0.90804,-0.46296 -1.0215,-1.67506 -0.21442,-2.29065 0.80899,-0.61705 2.00892,-0.0888 2.12433,0.93513 0.11382,1.00977 -1.01571,1.81143 -1.90991,1.35552 z M 129.3926,134.7119 c -0.15674,-0.0681 -0.43171,-0.28425 -0.61105,-0.48043 l -0.32606,-0.35671 -2.08452,0.31864 c -1.61558,0.24696 -2.11142,0.29631 -2.20412,0.21938 -0.13607,-0.11293 -0.15716,-0.29932 -0.0419,-0.37054 0.0427,-0.0264 0.94759,-0.18117 2.01083,-0.34395 1.06324,-0.16277 2.00937,-0.31389 2.1025,-0.33582 0.10557,-0.0249 0.25542,-0.22401 0.39794,-0.52888 0.30605,-0.65469 0.68383,-0.91234 1.33773,-0.91234 0.83871,0 1.44079,0.60749 1.43794,1.45086 -0.004,1.05213 -1.06289,1.755 -2.01926,1.33979 z m -31.38035,-1.69467 c -3.3528,-0.85684 -6.158086,-1.55873 -6.233968,-1.55976 -0.07588,-0.001 -0.276332,0.16697 -0.445444,0.37335 -0.614375,0.74976 -1.706222,1.04272 -2.604921,0.69893 -0.545071,-0.20852 -1.121152,-0.84036 -1.292617,-1.41775 -0.165476,-0.55722 -0.166896,-0.78283 -0.0083,-1.31691 0.463901,-1.56213 2.548851,-2.09458 3.698825,-0.94461 0.348474,0.34847 0.55498,0.75716 0.656111,1.2985 0.04075,0.2181 0.118377,0.42393 0.172511,0.45739 0.05413,0.0334 2.848982,0.75769 6.210776,1.60942 3.361797,0.85173 6.179367,1.58309 6.261277,1.62525 0.11088,0.0571 0.13494,0.13527 0.0942,0.3061 -0.0661,0.27673 -0.18766,0.44344 -0.31695,0.43454 -0.0525,-0.004 -2.83867,-0.70762 -6.191469,-1.56445 z m 14.47723,-3.62607 c -0.15414,-0.11271 -0.1009,-0.34998 1.42315,-6.34179 0.87081,-3.42358 1.58329,-6.32364 1.58329,-6.44457 0,-0.12094 -0.0335,-0.21988 -0.0745,-0.21988 -0.15374,0 -0.7928,-0.70463 -0.94693,-1.04411 -0.2338,-0.51492 -0.21767,-1.33464 0.037,-1.8816 0.2487,-0.53409 0.80442,-1.01877 1.35586,-1.18253 0.53306,-0.15831 0.75982,-0.15715 1.31151,0.007 1.01859,0.30249 1.70971,1.38404 1.56395,2.44746 -0.12233,0.89253 -0.95851,1.76112 -1.80328,1.87318 -0.2233,0.0296 -0.45036,0.0813 -0.50458,0.11478 -0.0542,0.0335 -0.8025,2.83913 -1.66284,6.2347 -0.86034,3.39557 -1.60109,6.2595 -1.64611,6.36427 -0.0941,0.21906 -0.39064,0.25325 -0.63659,0.0734 z m 38.35253,0.0113 c -0.0888,-0.23948 -0.54809,-2.53464 -0.54809,-2.73911 0,-0.14138 0.0382,-0.20705 0.10583,-0.18201 1.91186,0.70748 2.94217,1.13192 2.94217,1.21203 0,0.11024 -2.22777,1.81492 -2.37183,1.81492 -0.0488,0 -0.10649,-0.0476 -0.12808,-0.10583 z m -41.1826,-0.1593 c -0.0466,-0.1103 -0.29796,-1.61024 -0.55863,-3.3332 -0.26067,-1.72297 -0.50491,-3.21 -0.54275,-3.30452 -0.0453,-0.11308 -0.20988,-0.20841 -0.4813,-0.27876 -0.58434,-0.15145 -1.12749,-0.57841 -1.42791,-1.12245 -0.21361,-0.38684 -0.25343,-0.55205 -0.25343,-1.05161 0,-0.49813 0.04,-0.66498 0.25059,-1.0461 0.46251,-0.83694 1.23711,-1.25882 2.15795,-1.17532 1.1766,0.10669 2.03023,1.03961 2.03263,2.22142 0.002,0.85537 -0.27003,1.29928 -1.2623,2.06179 l -0.20665,0.1588 0.52703,3.41226 c 0.28987,1.87675 0.49597,3.44333 0.45801,3.48129 -0.038,0.038 -0.19042,0.0933 -0.33879,0.12298 -0.22964,0.0459 -0.28236,0.0241 -0.35445,-0.14658 z m 26.6782,-4.32804 c -0.0463,-0.15134 -0.13106,-0.48471 -0.18845,-0.74083 -0.0977,-0.43619 -0.16384,-0.52286 -1.04429,-1.36908 -0.62047,-0.59635 -0.91118,-0.93159 -0.85529,-0.9863 0.17068,-0.1671 3.175,-0.87439 3.175,-0.74748 0,0.0164 -0.19011,0.62667 -0.42247,1.35616 l -0.42248,1.32635 0.14077,0.64064 c 0.12106,0.55093 0.1239,0.65131 0.0203,0.71688 -0.21361,0.13519 -0.31719,0.0847 -0.4031,-0.19634 z m 14.14085,-1.13242 c -0.90804,-0.46296 -1.0215,-1.67506 -0.21442,-2.29065 0.80899,-0.61705 2.00892,-0.0888 2.12433,0.93513 0.11382,1.00977 -1.01571,1.81143 -1.90991,1.35552 z m -16.34656,-5.14523 c -0.58373,-0.32354 -0.56417,-1.37234 0.0307,-1.64336 0.69358,-0.31602 1.39937,0.10269 1.39937,0.83018 0,0.73461 -0.77581,1.17578 -1.43002,0.81318 z"
         id="path2" /><path
         style="fill:#43464a"
         d="m 76.80775,184.53124 c -0.346775,-0.0402 -0.803975,-0.13755 -1.016,-0.21639 -0.917623,-0.34121 -1.801054,-1.12086 -2.141503,-1.88993 -0.161663,-0.3652 -0.591602,-1.73419 -0.748906,-2.38464 -0.04127,-0.17066 -0.34651,-1.29461 -0.678303,-2.49766 -0.331792,-1.20305 -0.632661,-2.30167 -0.668597,-2.44137 -0.03593,-0.1397 -0.150487,-0.5588 -0.254559,-0.93133 -0.104072,-0.37253 -0.221581,-0.81376 -0.261133,-0.9805 -0.03955,-0.16674 -0.45806,-1.70979 -0.930019,-3.429 -0.792629,-2.88731 -0.967024,-3.53147 -1.180484,-4.36033 -0.04294,-0.16674 -0.46159,-1.70672 -0.93033,-3.42217 -1.028453,-3.76384 -1.020367,-3.72943 -0.903945,-3.84586 0.13891,-0.13891 5.146187,-0.12509 5.324842,0.0147 0.07439,0.0582 0.173085,0.27729 0.219312,0.48684 0.04623,0.20955 0.19925,0.81915 0.340049,1.35466 0.454719,1.72949 0.869948,3.32227 1.11464,4.27567 0.299749,1.16791 0.753736,2.91148 1.102269,4.23333 0.265143,1.00558 0.430453,1.64181 1.088941,4.191 0.186446,0.72179 0.43602,1.68169 0.554609,2.13312 0.118588,0.45143 0.333143,1.27058 0.476789,1.82033 0.289415,1.10764 0.393435,1.36501 0.604705,1.49618 0.108138,0.0671 0.183068,0.0529 0.305962,-0.0584 0.178154,-0.16123 0.236585,-0.34759 1.159417,-3.69792 0.07054,-0.25612 0.226304,-0.80857 0.346131,-1.22767 0.257073,-0.89913 0.450957,-1.59511 0.542483,-1.94733 0.0363,-0.1397 0.28416,-1.03505 0.550796,-1.98967 0.266637,-0.95462 0.514123,-1.84997 0.54997,-1.98967 0.03585,-0.1397 0.150245,-0.5588 0.254218,-0.93133 0.103973,-0.37253 0.208635,-0.75353 0.232583,-0.84667 0.02395,-0.0931 0.137463,-0.49318 0.252256,-0.889 0.114793,-0.39581 0.259251,-0.91016 0.321018,-1.143 0.627014,-2.36357 0.979844,-3.55545 1.15293,-3.89466 0.355006,-0.69575 1.182987,-1.35206 2.018897,-1.6003 0.666962,-0.19806 2.327976,-0.18457 3.060333,0.0249 1.288335,0.36843 2.044474,1.22264 2.443814,2.76076 0.03627,0.1397 0.226397,0.8255 0.422505,1.524 0.38154,1.35898 0.572391,2.04848 0.679624,2.45533 0.03682,0.1397 0.16113,0.57785 0.276243,0.97367 0.115113,0.39582 0.229192,0.79587 0.253508,0.889 0.04761,0.18235 0.70395,2.52989 1.207254,4.318 0.170394,0.60537 0.366828,1.31022 0.436519,1.56633 0.06969,0.25612 0.176325,0.63712 0.236964,0.84667 0.250427,0.86539 0.404962,1.41133 0.467339,1.651 0.03636,0.1397 0.207015,0.7493 0.379236,1.35467 0.172221,0.60536 0.352897,1.24486 0.401502,1.42109 0.093,0.33722 0.306846,0.51624 0.519281,0.43472 0.252753,-0.097 0.361458,-0.43038 1.157237,-3.54915 0.43547,-1.70666 0.864559,-3.37572 1.436587,-5.588 0.441405,-1.7071 1.494556,-5.79583 2.202606,-8.55133 0.53613,-2.08649 0.58896,-2.27392 0.66124,-2.3462 0.0381,-0.0381 1.26695,-0.0592 2.7308,-0.0469 l 2.66154,0.0224 -0.008,0.254 c -0.004,0.1397 -0.33855,1.44975 -0.74297,2.91122 -0.40441,1.46147 -0.76795,2.79497 -0.80787,2.96333 -0.0399,0.16837 -0.15691,0.61092 -0.25999,0.98345 -0.31105,1.12418 -0.44006,1.59591 -0.50937,1.86267 -0.0363,0.1397 -0.27975,1.0259 -0.541,1.96934 -0.26124,0.94344 -0.51149,1.85784 -0.5561,2.032 -0.22,0.85892 -0.3851,1.47317 -0.76784,2.85666 -0.10306,0.37253 -0.21677,0.79163 -0.25268,0.93133 -0.0535,0.2079 -0.56564,2.09195 -1.21989,4.48734 -0.0636,0.23283 -0.18258,0.67098 -0.26441,0.97366 -0.41344,1.52926 -0.7283,2.27651 -1.21295,2.87867 -0.399899,0.49687 -0.567559,0.64036 -1.027597,0.8795 -0.834951,0.43402 -1.80845,0.57637 -3.202984,0.46834 -1.274944,-0.0987 -2.044492,-0.42664 -2.814269,-1.1991 -0.603056,-0.60516 -0.859688,-1.18945 -1.348284,-3.06974 -0.0363,-0.1397 -0.283345,-1.03505 -0.548985,-1.98967 -0.589468,-2.11834 -0.720626,-2.59379 -0.805786,-2.921 -0.03636,-0.1397 -0.206618,-0.7493 -0.378353,-1.35466 -0.171735,-0.60537 -0.363495,-1.29117 -0.426133,-1.524 -0.06264,-0.23284 -0.170358,-0.63289 -0.239378,-0.889 -0.06902,-0.25612 -0.323835,-1.17052 -0.566256,-2.032 -0.242421,-0.86149 -0.470229,-1.68064 -0.506241,-1.82034 -0.06885,-0.26709 -0.261017,-0.96295 -0.654672,-2.37066 -0.198582,-0.71014 -0.265986,-0.85086 -0.417983,-0.87263 -0.204532,-0.0293 -0.244425,0.0698 -0.709039,1.76163 -0.147067,0.53551 -0.324945,1.18321 -0.395283,1.43933 -0.07034,0.25612 -0.15759,0.57997 -0.193891,0.71967 -0.05239,0.2016 -0.722555,2.6108 -1.106931,3.97933 -0.03924,0.1397 -0.126567,0.46355 -0.194065,0.71967 -0.0675,0.25611 -0.221325,0.80856 -0.341836,1.22766 -0.12051,0.4191 -0.281073,0.9906 -0.356807,1.27 -0.07573,0.2794 -0.186555,0.67945 -0.246271,0.889 -0.11043,0.38751 -0.370368,1.33446 -0.929648,3.38667 -0.421057,1.54502 -0.538753,1.91717 -0.763122,2.413 -0.587911,1.2992 -1.815103,2.07251 -3.557781,2.24194 -0.464018,0.0451 -0.862719,0.0781 -0.886002,0.0732 -0.02328,-0.005 -0.326058,-0.0417 -0.672833,-0.0818 z m -62.001668,-0.33446 c -0.140335,-0.0823 -0.148167,-0.99058 -0.148167,-17.18242 0,-16.89325 0.002,-17.09653 0.165967,-17.18431 0.108576,-0.0581 1.111333,-0.0811 2.899834,-0.0665 l 2.733866,0.0224 0.04233,4.02166 c 0.02328,2.21192 0.07316,4.0693 0.11083,4.12751 0.05337,0.0825 1.081513,0.10642 4.656667,0.10853 4.94372,0.003 6.152782,0.0812 7.720837,0.4999 3.129353,0.83563 5.144099,3.34281 5.5401,6.89417 0.13493,1.21007 0.124379,18.61255 -0.01137,18.7483 -0.07473,0.0747 -0.809037,0.1016 -2.777067,0.1016 -1.968029,0 -2.702331,-0.0269 -2.777066,-0.1016 -0.0776,-0.0776 -0.101718,-2.02222 -0.102099,-8.23384 -4.09e-4,-6.66555 -0.02259,-8.2773 -0.122959,-8.93656 -0.222845,-1.46368 -0.625802,-2.36823 -1.396047,-3.1338 -0.69909,-0.69486 -1.220864,-0.97322 -2.21925,-1.18395 -0.71954,-0.15187 -1.136188,-0.16705 -4.617082,-0.16826 -2.969146,-0.001 -3.841513,0.0224 -3.894667,0.10451 -0.03767,0.0582 -0.08755,4.94453 -0.11083,10.8585 l -0.04233,10.75266 -2.751667,0.0192 c -1.764951,0.0123 -2.804797,-0.0119 -2.899833,-0.0677 z m 32.3215,0.01 c -0.867433,-0.0762 -1.299521,-0.19995 -2.026782,-0.58046 -0.734239,-0.38417 -1.620615,-1.25472 -2.038677,-2.00228 -0.76193,-1.36246 -1.05431,-2.68817 -1.117153,-5.06541 -0.06681,-2.52746 0.20938,-4.23392 0.88673,-5.4786 0.395096,-0.72603 1.570311,-1.89627 2.33222,-2.32235 1.343449,-0.7513 2.011996,-0.80996 9.249479,-0.81162 3.328483,-7.6e-4 5.719348,-0.0337 5.792135,-0.0797 0.17595,-0.11129 0.214961,-1.08395 0.08963,-2.23466 -0.124291,-1.14112 -0.385277,-1.7094 -1.074202,-2.33904 -0.820286,-0.7497 -0.378222,-0.70916 -8.29753,-0.76088 -3.826251,-0.025 -6.988551,-0.0772 -7.027333,-0.11594 -0.08604,-0.086 -0.09504,-4.01844 -0.0097,-4.22632 0.05733,-0.13961 0.513232,-0.14817 7.888943,-0.14817 7.429477,0 7.870933,0.008 8.669225,0.16579 0.462618,0.0912 0.932144,0.20132 1.04339,0.24474 0.772061,0.3014 1.027934,0.42047 1.527191,0.71069 1.747774,1.01597 2.795829,2.97963 3.03556,5.6875 0.115448,1.30403 0.110095,14.98188 -0.0063,16.02546 -0.154003,1.38111 -0.57514,2.1806 -1.449498,2.75175 -0.974672,0.63667 -0.558486,0.6082 -9.127716,0.62446 -4.214283,0.008 -7.967133,-0.0122 -8.339667,-0.045 z m 11.795868,-4.39939 c 0.770702,-0.0736 1.065057,-0.22236 1.285132,-0.64931 0.175432,-0.34035 0.191104,-6.48118 0.01699,-6.65555 -0.08675,-0.0869 -1.035663,-0.11604 -4.487334,-0.13793 -4.486036,-0.0284 -5.697209,0.0289 -6.389536,0.3023 -0.436792,0.17252 -0.932948,0.76345 -1.173751,1.39796 -0.185983,0.49006 -0.200224,0.64368 -0.19424,2.09517 0.0059,1.41902 0.02431,1.61012 0.196262,2.032 0.356444,0.8745 1.163061,1.4746 2.156106,1.60408 0.681738,0.0889 7.681897,0.0981 8.590375,0.0113 z m 49.30807,4.37904 c -0.0784,-0.0784 -0.1016,-4.38821 -0.1016,-18.88333 0,-16.60185 0.0147,-18.78737 0.12677,-18.83037 0.0697,-0.0268 0.30785,0.0667 0.52917,0.20774 1.03655,0.66044 2.31506,0.82318 3.48438,0.44353 0.34467,-0.1119 0.79267,-0.33018 0.99557,-0.48505 0.43319,-0.33066 0.58294,-0.35156 0.65274,-0.0911 0.0897,0.33453 0.0609,37.28602 -0.0292,37.52299 l -0.0826,0.21718 h -2.73682 c -2.01576,0 -2.7636,-0.0268 -2.83843,-0.1016 z m 18.30019,0.0487 c -0.0538,-0.0223 -0.89203,-0.88531 -1.86267,-1.91778 -0.97063,-1.03247 -2.48869,-2.6406 -3.37346,-3.57362 -3.37787,-3.5621 -4.19674,-4.47111 -4.68405,-5.19964 -0.70518,-1.05426 -0.87631,-1.61626 -0.87283,-2.86649 0.003,-1.03248 0.13806,-1.64034 0.48768,-2.19268 0.3718,-0.58739 1.23802,-1.66878 2.02437,-2.52722 0.46922,-0.51223 2.19788,-2.41723 3.84147,-4.23333 1.64359,-1.8161 3.08182,-3.38773 3.19607,-3.4925 l 0.20774,-0.1905 h 3.20761 c 2.04379,0 3.22657,0.0307 3.25986,0.0845 0.0287,0.0465 -0.13366,0.28463 -0.36089,0.52917 -0.22723,0.24455 -1.19147,1.28383 -2.14275,2.30953 -0.95129,1.02569 -2.72021,2.92841 -3.93094,4.22827 -3.09174,3.31932 -3.33112,3.58656 -3.67418,4.10182 -0.29153,0.43786 -0.3051,0.4908 -0.30397,1.18534 0.001,0.62153 0.0338,0.78915 0.22607,1.15535 0.4035,0.76854 0.76476,1.16534 7.43396,8.16532 3.08815,3.24131 3.93812,4.17065 3.93812,4.30584 0,0.12643 -0.29814,0.14053 -3.25967,0.15416 -1.79282,0.008 -3.30371,-0.003 -3.35754,-0.0256 z M 90.426889,150.20472 c -0.51822,-0.15964 -1.15407,-0.73264 -1.400686,-1.26224 -0.23554,-0.50582 -0.266938,-1.2747 -0.07434,-1.82056 0.509914,-1.44526 2.419386,-1.9994 3.651427,-1.05967 0.151433,0.1155 0.333313,0.21 0.404179,0.21 0.07087,0 2.635633,-1.49081 5.699482,-3.31292 3.063849,-1.82211 5.660829,-3.35427 5.771079,-3.40479 0.17005,-0.0779 0.22462,-0.062 0.35983,0.10497 0.21256,0.2625 0.20142,0.53443 -0.0278,0.67755 -0.10293,0.0643 -2.62706,1.56496 -5.609162,3.33484 -2.98211,1.76987 -5.484741,3.27182 -5.561402,3.33766 -0.10917,0.0938 -0.138327,0.27 -0.134503,0.81303 0.006,0.85213 -0.185654,1.31037 -0.780915,1.86717 -0.63388,0.59292 -1.450154,0.7759 -2.297225,0.51496 z m 42.654121,-6.17139 c -0.82709,-0.29502 -1.42427,-0.98347 -1.59182,-1.83511 -0.0536,-0.27227 -0.14019,-0.52882 -0.1925,-0.57009 -0.0523,-0.0413 -2.66686,-0.72766 -5.81011,-1.52528 -7.97768,-2.02439 -7.14965,-1.78384 -7.17923,-2.0856 -0.0137,-0.1397 0.0285,-0.32701 0.0938,-0.41624 0.11485,-0.15696 0.32672,-0.1094 6.50606,1.4605 3.51305,0.89251 6.46524,1.62274 6.56043,1.62274 0.10317,0 0.31431,-0.16749 0.52275,-0.41469 0.50296,-0.59648 0.98953,-0.81054 1.83583,-0.80764 0.52731,0.002 0.75487,0.0429 1.02738,0.18572 1.50861,0.79041 1.76245,2.78336 0.49646,3.89773 -0.63314,0.55731 -1.53246,0.75071 -2.26908,0.48796 z m -22.8037,-1.99662 c -1.17991,-0.21245 -2.25221,-0.78177 -3.11898,-1.65596 -0.96742,-0.9757 -1.47435,-2.01864 -1.66318,-3.42173 -0.35228,-2.61763 1.379,-5.32195 3.93605,-6.14824 1.47837,-0.47772 3.04027,-0.35375 4.44016,0.35242 1.33137,0.67162 2.29366,1.75753 2.82707,3.19026 0.33956,0.91206 0.42072,2.23583 0.19835,3.23532 -0.45808,2.05901 -2.11047,3.77959 -4.15253,4.32388 -0.62377,0.16627 -1.8813,0.2295 -2.46694,0.12405 z m -16.477399,-1.21504 c -0.945483,-0.34996 -1.50469,-1.2017 -1.500802,-2.2859 0.0046,-1.29477 1.035014,-2.28702 2.368807,-2.28118 0.87105,0.004 1.330742,0.28805 2.159,1.33494 l 0.169334,0.21403 3.429,-0.54022 c 2.3776,-0.37458 3.46145,-0.51387 3.53483,-0.45429 0.0582,0.0473 0.10584,0.23294 0.10584,0.41262 0,0.269 -0.0336,0.33464 -0.1905,0.37171 -0.10478,0.0248 -1.64784,0.2709 -3.42902,0.54696 -1.781191,0.27607 -3.274118,0.52394 -3.317619,0.55083 -0.0435,0.0269 -0.139069,0.25519 -0.212375,0.50735 -0.170184,0.58542 -0.576183,1.11663 -1.101768,1.44158 -0.351082,0.21706 -0.510972,0.2591 -1.05541,0.27749 -0.391323,0.0132 -0.765577,-0.0242 -0.959317,-0.0959 z m 57.688759,-4.45459 c -0.43721,-0.13446 -0.82649,-0.27603 -0.86507,-0.31461 -0.0806,-0.0806 0.39841,-1.71109 0.54599,-1.8583 0.0741,-0.0739 0.31481,-0.0312 0.98699,0.1753 0.70519,0.21659 0.89268,0.30683 0.90679,0.43642 0.0305,0.27981 -0.51349,1.7704 -0.65279,1.78884 -0.0699,0.009 -0.48471,-0.0932 -0.92191,-0.22765 z m -12.75291,-0.78596 c -0.41847,-0.37715 -0.77221,-0.74867 -0.7861,-0.8256 -0.0204,-0.11274 0.17671,-0.19184 1.016,-0.40783 1.14027,-0.29344 1.37592,-0.32236 1.31676,-0.16161 -0.0214,0.0582 -0.18092,0.53408 -0.35445,1.05749 -0.17352,0.52341 -0.34156,0.96777 -0.37343,0.98747 -0.0319,0.0197 -0.40032,-0.27277 -0.81878,-0.64992 z m 18.11563,-2.46663 c -0.36507,-0.15901 -0.70635,-0.59839 -0.76897,-0.99 -0.0294,-0.1837 -0.096,-0.36171 -0.14812,-0.39559 -0.0521,-0.0339 -0.45667,-0.1951 -0.89905,-0.35827 -0.66024,-0.24352 -0.80919,-0.33081 -0.83144,-0.48724 -0.0151,-0.1061 0.0254,-0.21069 0.0913,-0.23598 0.0651,-0.025 0.50712,0.0928 0.98228,0.26181 l 0.86393,0.30723 0.33093,-0.29898 c 0.58264,-0.52638 1.33657,-0.51828 1.875,0.0202 1.05082,1.05082 -0.13134,2.77121 -1.49582,2.17687 z m -13.86703,-1.88468 c -0.15424,-0.15425 -0.002,-0.40202 0.55739,-0.90724 l 0.61383,-0.55438 0.0423,-1.04014 0.0423,-1.04013 h 1.18533 1.18534 v 1.18533 1.18533 l -1.07234,0.0423 -1.07234,0.0423 -0.5916,0.5715 c -0.55437,0.53554 -0.75419,0.65115 -0.89028,0.51506 z m -27.69606,-0.90639 -0.24994,-0.19999 0.15766,-0.24409 c 0.0867,-0.13425 1.02008,-1.42519 2.07414,-2.86876 1.05407,-1.44356 1.94746,-2.67535 1.98533,-2.73731 0.0429,-0.0702 -0.0383,-0.32387 -0.21553,-0.67303 -0.24124,-0.47537 -0.28323,-0.64451 -0.2768,-1.11502 0.0128,-0.93429 0.47073,-1.69501 1.24995,-2.07624 0.93552,-0.45771 1.89089,-0.34525 2.63556,0.31024 1.2659,1.11428 1.01141,3.12562 -0.49255,3.89288 -0.43152,0.22015 -1.27559,0.29726 -1.70449,0.15571 -0.29463,-0.0972 -0.33212,-0.0902 -0.50794,0.0952 -0.1044,0.11012 -1.02075,1.34321 -2.03633,2.74021 -1.96386,2.70144 -2.13531,2.92124 -2.27804,2.92058 -0.0501,-2.3e-4 -0.20355,-0.0904 -0.34102,-0.20041 z m 19.97309,-0.0876 c -0.85428,-0.3721 -1.05602,-1.50762 -0.38677,-2.17687 0.95124,-0.95124 2.51001,-0.0992 2.25968,1.23513 -0.14972,0.79809 -1.10265,1.27724 -1.87291,0.94174 z m -28.08309,-0.19841 c -0.0722,-0.0815 -1.64574,-2.70087 -3.49684,-5.82084 -1.85109,-3.11996 -3.41901,-5.73481 -3.48426,-5.81076 -0.0951,-0.11067 -0.226788,-0.12941 -0.663325,-0.0944 -0.692515,0.0556 -1.17196,-0.0784 -1.695075,-0.47379 -1.401925,-1.05958 -1.104704,-3.32225 0.531397,-4.04539 0.49389,-0.2183 1.411677,-0.19858 1.905013,0.0409 1.36978,0.66501 1.78838,2.41312 0.86709,3.621 -0.11498,0.15074 -0.20905,0.31249 -0.20905,0.35944 0,0.047 1.56188,2.7128 3.47084,5.92411 1.90897,3.21132 3.4936,5.89804 3.5214,5.9705 0.0341,0.0889 -0.0414,0.18783 -0.23234,0.30422 -0.34376,0.20958 -0.35105,0.20993 -0.51485,0.0249 z m 18.337,-0.57646 c -0.0737,-0.19219 -0.0391,-0.24196 1.32881,-1.9065 0.65036,-0.79141 1.18247,-1.45784 1.18247,-1.48096 0,-0.0231 -0.0571,-0.1788 -0.127,-0.34597 -0.36781,-0.88031 0.15165,-1.79046 1.10458,-1.93531 0.42952,-0.0653 1.01646,0.22092 1.28657,0.62739 0.26317,0.396 0.26349,1.0627 6.9e-4,1.44884 -0.34853,0.51208 -0.59784,0.63413 -1.29536,0.63413 h -0.6259 l -1.25282,1.52314 c -0.68905,0.83772 -1.31892,1.53587 -1.39971,1.55142 -0.0808,0.0156 -0.17184,-0.0367 -0.20233,-0.11618 z m 15.75742,-3.71247 c -0.85427,-0.3721 -1.05602,-1.50761 -0.38676,-2.17687 0.95123,-0.95123 2.51,-0.0992 2.25968,1.23514 -0.14973,0.79809 -1.10266,1.27724 -1.87292,0.94173 z m 4.23753,-4.98141 c -0.5588,-0.523 -1.016,-1.00825 -1.016,-1.07833 0,-0.094 0.40008,-0.23209 1.52398,-0.52608 0.83819,-0.21926 1.55444,-0.3682 1.59166,-0.33098 0.0556,0.0556 -0.70087,2.5942 -0.84017,2.8196 -0.0971,0.15719 -0.29579,0.0177 -1.25947,-0.88421 z m -5.94783,-1.81047 c -0.43074,-0.30407 -0.78317,-0.59781 -0.78317,-0.65275 0,-0.2047 1.10344,-1.74961 1.2501,-1.75025 0.1822,-8e-4 1.7979,1.09124 1.7979,1.21519 0,0.0496 -0.25487,0.46335 -0.56638,0.91947 -0.41453,0.60697 -0.61315,0.82823 -0.74083,0.82526 -0.0959,-0.002 -0.52688,-0.25285 -0.95762,-0.55692 z"
         id="path1" /></g><text
       xml:space="preserve"
       style="font-weight:bold;font-size:8.46667px;font-family:sans-serif;-inkscape-font-specification:'sans-serif Bold';writing-mode:lr-tb;direction:ltr;fill:#027abe;stroke-width:0.264583"
       x="191.85146"
       y="155.62537"
       id="text2"><tspan
         id="tspan2"
         style="font-size:8.46667px;stroke-width:0.264583"
         x="191.85146"
         y="155.62537">TM</tspan></text></g></svg>
