<?xml version="1.0" encoding="UTF-8" standalone="no"?>
<!-- Created with Inkscape (http://www.inkscape.org/) -->

<svg
   width="49.873135mm"
   height="45.771557mm"
   viewBox="0 0 49.873135 45.771557"
   version="1.1"
   id="svg1"
   xml:space="preserve"
   xmlns="http://www.w3.org/2000/svg"><defs
     id="defs1" /><g id="layer1"
     transform="translate(-79.033201,-125.54063)"><g
       id="g1"><path
         style="fill:#027abe"
         d="m 113.80259,170.69195 c -0.77308,-0.34954 -1.2567,-1.02421 -1.33237,-1.85871 -0.0507,-0.55941 0.068,-0.98885 0.41327,-1.49423 0.13297,-0.19466 0.24176,-0.39413 0.24176,-0.44327 0,-0.0491 -1.42875,-2.49176 -3.175,-5.42806 -1.74625,-2.93629 -3.175,-5.39214 -3.175,-5.45743 0,-0.14085 0.32099,-0.38232 0.50822,-0.38232 0.0844,0 1.21358,1.8205 3.13499,5.0542 1.65172,2.7798 3.1097,5.22237 3.23996,5.42792 l 0.23684,0.37372 0.46146,-0.0576 c 1.64372,-0.20537 2.96613,1.36851 2.45155,2.91776 -0.40723,1.22605 -1.84717,1.87187 -3.00568,1.34807 z m -8.89,-3.302 c -0.77309,-0.34954 -1.2567,-1.02421 -1.33237,-1.85871 -0.0755,-0.8326 0.34321,-1.6701 1.03873,-2.0777 0.29804,-0.17467 0.3781,-0.26939 0.37736,-0.44649 -5.2e-4,-0.12363 -0.20815,-1.5567 -0.4614,-3.18459 -0.33378,-2.14551 -0.43549,-2.98988 -0.36969,-3.06916 0.0499,-0.0602 0.21872,-0.10937 0.37512,-0.10937 0.22504,0 0.29379,0.0397 0.32958,0.1905 0.0249,0.10477 0.25043,1.512 0.50122,3.12717 0.25079,1.61517 0.47952,2.97474 0.50828,3.02128 0.0288,0.0465 0.25162,0.14264 0.49523,0.21358 0.91189,0.26551 1.54959,1.02008 1.64523,1.94678 0.16978,1.64495 -1.60309,2.92681 -3.10729,2.24671 z M 93.059251,164.5166 c -0.473097,-0.22051 -0.893265,-0.61564 -1.117478,-1.05088 -0.21184,-0.41122 -0.286878,-1.16207 -0.162187,-1.62291 0.295555,-1.09232 1.524961,-1.83032 2.625769,-1.57622 0.235455,0.0543 0.47658,0.0792 0.535832,0.0551 0.05925,-0.024 0.926881,-1.1693 1.928064,-2.54507 1.001184,-1.37577 1.869718,-2.54248 1.930077,-2.59269 0.125018,-0.10398 0.551953,0.16305 0.588762,0.36825 0.01165,0.0649 -0.816973,1.26103 -1.841372,2.65803 -1.0244,1.397 -1.862602,2.60188 -1.862672,2.6775 -7e-5,0.0756 0.09652,0.31044 0.214654,0.52179 0.584971,1.04663 0.203082,2.36884 -0.864965,2.99475 -0.536642,0.3145 -1.431485,0.36539 -1.974484,0.1123 z m 22.220289,-3.50164 c -0.85472,-0.39801 -1.39551,-1.37471 -1.26778,-2.28967 0.0331,-0.2367 0.0662,-0.5047 0.0736,-0.59555 0.0152,-0.18505 -0.0617,-0.24626 -3.04054,-2.41978 -1.07438,-0.78393 -2.00186,-1.4837 -2.06106,-1.55503 -0.0889,-0.10712 -0.0758,-0.17444 0.0754,-0.38668 0.10064,-0.14135 0.22078,-0.25699 0.26698,-0.25699 0.0749,0 1.31279,0.88964 4.18014,3.00411 0.51224,0.37774 0.97454,0.71311 1.02735,0.74527 0.0528,0.0322 0.32982,-0.0621 0.61558,-0.20948 1.61348,-0.83213 3.44875,0.35481 3.28809,2.12654 -0.0561,0.61823 -0.29556,1.08405 -0.7738,1.50501 -0.65062,0.5727 -1.58723,0.70323 -2.38393,0.33225 z M 118.1345,149.142 c -0.39889,-0.19877 -0.59545,-0.38499 -1.10074,-1.0428 l -0.15752,-0.20507 -3.1341,0.48762 c -1.72375,0.26818 -3.22238,0.47476 -3.33029,0.45906 -0.23749,-0.0346 -0.3935,-0.47252 -0.22682,-0.63675 0.0571,-0.0563 1.49454,-0.31501 3.19422,-0.57492 1.69969,-0.2599 3.17267,-0.50724 3.2733,-0.54964 0.12697,-0.0535 0.22673,-0.2277 0.32594,-0.56916 0.20141,-0.69325 0.81702,-1.30666 1.51479,-1.50939 0.61927,-0.17992 1.09972,-0.12539 1.68689,0.19148 1.37286,0.74087 1.56085,2.58165 0.37063,3.62932 -0.67502,0.59418 -1.61627,0.71893 -2.4163,0.32025 z m -27.826915,-2.45223 c -3.352801,-0.85723 -6.158086,-1.55904 -6.233968,-1.55956 -0.07588,-5.2e-4 -0.276332,0.16791 -0.445445,0.37429 -0.645188,0.78736 -1.825418,1.07314 -2.694496,0.65242 -0.753121,-0.36458 -1.336425,-1.25657 -1.336425,-2.04366 0,-0.77641 0.577988,-1.6606 1.307625,-2.00036 0.543332,-0.253 1.366933,-0.27073 1.874217,-0.0403 0.673043,0.30568 1.20459,1.03478 1.286921,1.76522 0.02452,0.2175 0.09688,0.39594 0.178098,0.4392 0.07524,0.0401 2.860956,0.76262 6.190473,1.60566 3.329516,0.84305 6.140227,1.57043 6.246023,1.61641 0.157205,0.0683 0.182148,0.12632 0.136492,0.3174 -0.06712,0.28089 -0.1882,0.44791 -0.318049,0.43869 -0.05251,-0.004 -2.838666,-0.70815 -6.191466,-1.56538 z m 7.053546,-0.99935 c -0.154117,-0.10541 -1.35824,-0.98149 -2.675828,-1.94685 -1.317588,-0.96536 -2.453484,-1.7774 -2.524213,-1.80454 -0.07073,-0.0271 -0.328637,0.0519 -0.57313,0.17556 -0.963284,0.48738 -1.962777,0.35067 -2.680026,-0.36658 -0.619965,-0.61997 -0.807971,-1.39059 -0.550115,-2.25488 0.155413,-0.52092 0.531382,-0.98303 1.045832,-1.28545 0.343657,-0.20202 0.485364,-0.23256 1.073267,-0.23129 0.532921,0.001 0.752112,0.0411 1.028069,0.18758 0.921454,0.48896 1.442212,1.71796 1.119815,2.64278 -0.08568,0.24578 -0.07452,0.29544 0.105834,0.4708 0.110888,0.10782 1.287465,0.98554 2.614615,1.95047 3.003353,2.18367 2.828058,2.02913 2.647786,2.3343 -0.193776,0.32804 -0.306247,0.35084 -0.631906,0.1281 z m 7.423689,-2.62559 c -0.15415,-0.11271 -0.1009,-0.34997 1.42315,-6.34178 0.8708,-3.42358 1.58328,-6.32364 1.58328,-6.44458 0,-0.12093 -0.0335,-0.21988 -0.0745,-0.21988 -0.15374,0 -0.79279,-0.70463 -0.94692,-1.0441 -0.2338,-0.51493 -0.21767,-1.33465 0.037,-1.88161 0.2487,-0.53409 0.80443,-1.01877 1.35586,-1.18253 0.53307,-0.1583 0.75983,-0.15714 1.31151,0.007 1.0186,0.30249 1.70971,1.38403 1.56395,2.44746 -0.12233,0.89253 -0.9585,1.76111 -1.80328,1.87317 -0.2233,0.0296 -0.45047,0.0813 -0.50482,0.11494 -0.0543,0.0336 -0.81622,2.88236 -1.69304,6.3306 -0.87682,3.44824 -1.62053,6.31209 -1.65268,6.36412 -0.0808,0.13075 -0.40672,0.11853 -0.59957,-0.0225 z m -2.83008,-0.14804 c -0.0466,-0.11029 -0.29796,-1.61023 -0.55862,-3.3332 -0.26067,-1.72296 -0.50669,-3.2139 -0.54671,-3.31319 -0.0501,-0.12427 -0.2001,-0.21133 -0.4813,-0.27933 -0.575527,-0.13918 -1.122015,-0.56641 -1.423953,-1.1132 -0.213615,-0.38684 -0.253428,-0.55205 -0.253428,-1.05161 0,-0.49814 0.03997,-0.66499 0.250581,-1.0461 0.462515,-0.83694 1.23711,-1.25882 2.15796,-1.17532 1.17659,0.10669 2.03023,1.03961 2.03263,2.22142 0.002,0.85559 -0.2698,1.29897 -1.26307,2.0624 l -0.20742,0.15943 0.52764,3.4118 c 0.2902,1.8765 0.49664,3.44279 0.45877,3.48067 -0.0379,0.0379 -0.19025,0.0931 -0.33863,0.12281 -0.22964,0.0459 -0.28236,0.0241 -0.35445,-0.14658 z"
         id="path2" /><path
         style="display:inline;fill:#43464a;fill-opacity:1"
         d="m 98.964544,166.29006 c -0.768117,-0.4055 -1.042582,-1.51918 -0.555712,-2.25489 0.230842,-0.34883 0.80674,-0.70257 1.143784,-0.70257 0.09601,0 0.21391,-0.0476 0.261995,-0.10584 0.04808,-0.0582 0.416999,-1.41756 0.819809,-3.02078 0.40281,-1.60322 0.77077,-2.98666 0.81767,-3.07431 0.11198,-0.20922 0.4467,-0.16542 0.47827,0.0626 0.0129,0.0931 -0.31759,1.51434 -0.73441,3.15823 l -0.75786,2.9889 0.37099,0.41772 c 0.58941,0.66364 0.66724,1.24539 0.26404,1.97362 -0.37603,0.67918 -1.376732,0.94367 -2.108576,0.55733 z m -16.02296,-2.35499 c -1.523131,-0.39995 -2.25792,-1.98574 -1.563769,-3.37486 0.630397,-1.26154 2.093637,-1.65863 3.341946,-0.90694 0.267303,0.16096 0.540473,0.29266 0.607045,0.29266 0.06657,0 2.655,-1.50701 5.752064,-3.34891 3.097063,-1.84189 5.690805,-3.37184 5.76387,-3.39988 0.158991,-0.061 0.445196,0.27609 0.447962,0.52762 0.0015,0.13499 -0.521463,0.48205 -2.474617,1.64231 -1.362075,0.80914 -3.951371,2.3497 -5.75399,3.42348 l -3.277489,1.95232 0.0091,0.68103 c 0.0071,0.53444 -0.03209,0.77629 -0.182268,1.12359 -0.210499,0.48678 -0.77916,1.06764 -1.229393,1.25575 -0.360094,0.15046 -1.108638,0.21897 -1.440468,0.13183 z M 125.418,157.70911 c -0.85435,-0.27857 -1.47395,-0.99297 -1.6412,-1.89232 l -0.0974,-0.52401 -0.42988,-0.12275 c -0.23644,-0.0675 -2.41108,-0.62585 -4.83255,-1.24074 -2.42147,-0.61489 -5.16467,-1.31292 -6.096,-1.55117 l -1.69333,-0.43319 0.0102,-0.32345 c 0.006,-0.1779 0.0504,-0.36371 0.0996,-0.4129 0.0628,-0.0628 2.02406,0.40283 6.58735,1.56399 3.57384,0.90939 6.53891,1.63525 6.58903,1.61302 0.0501,-0.0222 0.20544,-0.19569 0.34514,-0.38548 0.1397,-0.1898 0.46355,-0.46315 0.71967,-0.60746 0.41405,-0.2333 0.54074,-0.26223 1.143,-0.26092 0.80274,0.002 1.1759,0.16307 1.70511,0.73719 0.48195,0.52286 0.6562,1.02344 0.60505,1.73824 -0.0448,0.62558 -0.18296,0.9589 -0.58963,1.42206 -0.56136,0.63936 -1.62958,0.93896 -2.42412,0.67989 z m -22.91841,-2.02944 c -2.05274,-0.39305 -3.785235,-1.8863 -4.43135,-3.81941 -1.224059,-3.66226 1.352384,-7.45477 5.18912,-7.63835 1.419,-0.0679 2.54518,0.27071 3.74287,1.12536 2.23986,1.59833 2.97031,4.81688 1.66644,7.34277 -0.45237,0.87633 -1.62215,2.0279 -2.48408,2.4454 -1.17801,0.57059 -2.51417,0.76803 -3.683,0.54423 z m -16.344634,-1.18002 c -1.06359,-0.40979 -1.623855,-1.29375 -1.542316,-2.43337 0.08862,-1.23862 1.054243,-2.13219 2.304116,-2.13219 0.898051,0 1.403075,0.30436 2.205495,1.32915 l 0.169334,0.21626 3.259666,-0.51103 c 1.792817,-0.28106 3.373967,-0.50019 3.513667,-0.48695 0.233443,0.0221 0.256096,0.053 0.279898,0.38111 0.02275,0.3136 0.0021,0.36249 -0.169333,0.4019 -0.107377,0.0247 -1.653506,0.26972 -3.435842,0.54452 -1.782335,0.27481 -3.29681,0.54629 -3.3655,0.6033 -0.06869,0.057 -0.12489,0.18675 -0.12489,0.28832 0,0.31575 -0.42221,1.05044 -0.779344,1.35613 -0.187586,0.16056 -0.51486,0.35116 -0.727276,0.42353 -0.448697,0.15289 -1.216761,0.16224 -1.587675,0.0193 z m 23.455094,-8.47324 c -0.10349,-0.19218 -0.13264,-0.32946 -0.0804,-0.3787 0.0451,-0.0425 2.63465,-1.59162 5.75461,-3.44255 3.11997,-1.85093 5.72982,-3.41843 5.79967,-3.48333 0.0927,-0.0862 0.12739,-0.30562 0.12843,-0.81346 0.002,-0.82057 0.18176,-1.29632 0.67872,-1.79329 0.45654,-0.45653 0.9793,-0.66854 1.65403,-0.67081 2.03067,-0.007 3.10036,2.35631 1.75727,3.88213 -0.43222,0.49103 -0.89322,0.72913 -1.52212,0.78616 -0.59907,0.0543 -1.14891,-0.0881 -1.59898,-0.4141 -0.18364,-0.13303 -0.39644,-0.24187 -0.47289,-0.24187 -0.0765,0 -2.71269,1.53063 -5.85831,3.40139 -3.14562,1.87076 -5.79994,3.4168 -5.89849,3.43564 -0.13557,0.0259 -0.2187,-0.0391 -0.34153,-0.26721 z m -1.90504,-1.97122 c -0.31301,-0.21422 -0.34379,-0.29994 -0.19167,-0.53378 0.076,-0.11686 1.00122,-1.39358 2.05597,-2.83715 1.05475,-1.44357 1.94757,-2.67536 1.98404,-2.73731 0.0402,-0.0683 -0.0443,-0.33052 -0.21432,-0.66556 -0.49679,-0.97874 -0.3475,-2.03543 0.39204,-2.77497 0.47706,-0.47706 0.98036,-0.67728 1.69052,-0.67253 1.34148,0.009 2.32991,1.0279 2.3275,2.39929 -0.002,1.30528 -1.23559,2.40677 -2.52972,2.25935 -0.26132,-0.0298 -0.56853,-0.0631 -0.68269,-0.0742 -0.23936,-0.0231 -0.21207,-0.057 -2.77829,3.44592 -0.91894,1.25436 -1.70961,2.29282 -1.75705,2.30769 -0.0474,0.0149 -0.18078,-0.0377 -0.29633,-0.11675 z m -8.229046,-0.3441 c -0.07088,-0.0815 -1.643239,-2.70086 -3.494141,-5.82083 -1.850901,-3.11997 -3.41607,-5.72646 -3.478154,-5.79221 -0.07938,-0.0841 -0.334061,-0.12175 -0.858149,-0.127 -0.661608,-0.007 -0.796965,-0.036 -1.205797,-0.26146 -0.471467,-0.26003 -0.891941,-0.74923 -1.078197,-1.25441 -0.156987,-0.4258 -0.132112,-1.31839 0.04778,-1.71446 0.227685,-0.50129 0.653276,-0.94786 1.144657,-1.20109 0.522893,-0.26948 1.415811,-0.30347 1.935674,-0.0737 1.40767,0.62218 1.874506,2.44723 0.939541,3.67303 -0.119625,0.15684 -0.199232,0.34939 -0.176904,0.42789 0.02233,0.0785 1.603668,2.76841 3.514089,5.97757 1.910421,3.20916 3.453437,5.8871 3.428927,5.95097 -0.0372,0.097 -0.445728,0.36386 -0.557045,0.36386 -0.01838,0 -0.0914,-0.0667 -0.162281,-0.14817 z"
         id="path1" /></g></g></svg>
